<mxfile host="app.diagrams.net" modified="2023-10-23T11:50:27.487Z" agent="Mozilla/5.0 (Windows NT 10.0; Win64; x64) AppleWebKit/537.36 (KHTML, like Gecko) Chrome/118.0.0.0 Safari/537.36" version="21.7.2" etag="3QSzcAGc1Iy9Rfd3QSb5" type="github">
  <diagram name="第 1 页" id="lGv5YBoI30gSqfIWVhP1">
    <mxGraphModel>
      <root>
        <mxCell id="0" />
        <mxCell id="1" parent="0" />
      </root>
    </mxGraphModel>
  </diagram>
</mxfile>
